<mxfile host="app.diagrams.net" modified="2023-12-10T23:20:51.723Z" agent="Mozilla/5.0 (Windows NT 10.0; Win64; x64) AppleWebKit/537.36 (KHTML, like Gecko) Chrome/120.0.0.0 Safari/537.36    " etag="Weq52JVlebbupjyZJKsF" version="22.1.7" type="device">
  <diagram id="R2lEEEUBdFMjLlhIrx00" name="Page-1">
    <mxGraphModel dx="1687" dy="2004" grid="1" gridSize="10" guides="1" tooltips="1" connect="1" arrows="1" fold="1" page="1" pageScale="1" pageWidth="850" pageHeight="1100" math="0" shadow="0" extFonts="Permanent Marker^https://fonts.googleapis.com/css?family=Permanent+Marker">
      <root>
        <mxCell id="0" />
        <mxCell id="1" parent="0" />
        <mxCell id="v8aYDQcuzWpAuii8lj9a-3" style="rounded=0;orthogonalLoop=1;jettySize=auto;html=1;exitX=1;exitY=0.25;exitDx=0;exitDy=0;entryX=0.5;entryY=1;entryDx=0;entryDy=0;edgeStyle=orthogonalEdgeStyle;startArrow=classic;startFill=1;" parent="1" source="RILJoQEWwzmWJmmzdWhP-11" target="RILJoQEWwzmWJmmzdWhP-18" edge="1">
          <mxGeometry relative="1" as="geometry" />
        </mxCell>
        <mxCell id="v8aYDQcuzWpAuii8lj9a-4" style="edgeStyle=orthogonalEdgeStyle;rounded=0;orthogonalLoop=1;jettySize=auto;html=1;exitX=1;exitY=0.75;exitDx=0;exitDy=0;entryX=0.5;entryY=0;entryDx=0;entryDy=0;startArrow=classic;startFill=1;" parent="1" source="RILJoQEWwzmWJmmzdWhP-11" target="v8aYDQcuzWpAuii8lj9a-1" edge="1">
          <mxGeometry relative="1" as="geometry" />
        </mxCell>
        <mxCell id="RILJoQEWwzmWJmmzdWhP-11" value="USUARIO" style="rounded=0;whiteSpace=wrap;html=1;fillColor=#dae8fc;strokeColor=#6c8ebf;" parent="1" vertex="1">
          <mxGeometry x="231" y="360" width="140" height="40" as="geometry" />
        </mxCell>
        <mxCell id="v8aYDQcuzWpAuii8lj9a-5" style="edgeStyle=orthogonalEdgeStyle;orthogonalLoop=1;jettySize=auto;html=1;exitX=0.5;exitY=0;exitDx=0;exitDy=0;entryX=0;entryY=0.5;entryDx=0;entryDy=0;startArrow=classic;startFill=1;strokeColor=default;rounded=0;" parent="1" source="RILJoQEWwzmWJmmzdWhP-18" target="I1S-UfA_8mbZQqfXlzqB-15" edge="1">
          <mxGeometry relative="1" as="geometry" />
        </mxCell>
        <mxCell id="RILJoQEWwzmWJmmzdWhP-18" value="REALIZA" style="rhombus;whiteSpace=wrap;html=1;fillColor=#fff2cc;strokeColor=#d6b656;" parent="1" vertex="1">
          <mxGeometry x="400" y="250" width="140" height="50" as="geometry" />
        </mxCell>
        <mxCell id="RILJoQEWwzmWJmmzdWhP-20" value="ID_USER" style="ellipse;whiteSpace=wrap;html=1;fillColor=#e1d5e7;strokeColor=#9673a6;" parent="1" vertex="1">
          <mxGeometry x="29" y="225.5" width="90" height="40" as="geometry" />
        </mxCell>
        <mxCell id="RILJoQEWwzmWJmmzdWhP-22" value="USERNAME" style="ellipse;whiteSpace=wrap;html=1;fillColor=#e1d5e7;strokeColor=#9673a6;" parent="1" vertex="1">
          <mxGeometry x="30" y="270.5" width="90" height="40" as="geometry" />
        </mxCell>
        <mxCell id="I1S-UfA_8mbZQqfXlzqB-1" value="EMAIL" style="ellipse;whiteSpace=wrap;html=1;fillColor=#e1d5e7;strokeColor=#9673a6;" parent="1" vertex="1">
          <mxGeometry x="30" y="315.5" width="90" height="40" as="geometry" />
        </mxCell>
        <mxCell id="I1S-UfA_8mbZQqfXlzqB-2" value="USER_PASSWORD" style="ellipse;whiteSpace=wrap;html=1;fillColor=#e1d5e7;strokeColor=#9673a6;" parent="1" vertex="1">
          <mxGeometry x="30" y="405.5" width="90" height="40" as="geometry" />
        </mxCell>
        <mxCell id="I1S-UfA_8mbZQqfXlzqB-3" value="FIRST_NAME" style="ellipse;whiteSpace=wrap;html=1;fillColor=#e1d5e7;strokeColor=#9673a6;" parent="1" vertex="1">
          <mxGeometry x="30" y="540.5" width="90" height="40" as="geometry" />
        </mxCell>
        <mxCell id="I1S-UfA_8mbZQqfXlzqB-4" value="LAST_NAME" style="ellipse;whiteSpace=wrap;html=1;fillColor=#e1d5e7;strokeColor=#9673a6;" parent="1" vertex="1">
          <mxGeometry x="30" y="495.5" width="90" height="40" as="geometry" />
        </mxCell>
        <mxCell id="I1S-UfA_8mbZQqfXlzqB-5" value="IS_STAFF" style="ellipse;whiteSpace=wrap;html=1;fillColor=#e1d5e7;strokeColor=#9673a6;" parent="1" vertex="1">
          <mxGeometry x="30" y="450.5" width="90" height="40" as="geometry" />
        </mxCell>
        <mxCell id="I1S-UfA_8mbZQqfXlzqB-6" value="DATE_JOINED" style="ellipse;whiteSpace=wrap;html=1;fillColor=#e1d5e7;strokeColor=#9673a6;" parent="1" vertex="1">
          <mxGeometry x="30" y="360.5" width="90" height="40" as="geometry" />
        </mxCell>
        <mxCell id="I1S-UfA_8mbZQqfXlzqB-7" value="" style="endArrow=none;html=1;rounded=0;exitX=1;exitY=0.5;exitDx=0;exitDy=0;" parent="1" source="RILJoQEWwzmWJmmzdWhP-20" edge="1">
          <mxGeometry width="50" height="50" relative="1" as="geometry">
            <mxPoint x="181" y="430" as="sourcePoint" />
            <mxPoint x="231" y="380" as="targetPoint" />
          </mxGeometry>
        </mxCell>
        <mxCell id="I1S-UfA_8mbZQqfXlzqB-8" value="" style="endArrow=none;html=1;rounded=0;exitX=1;exitY=0.5;exitDx=0;exitDy=0;entryX=0;entryY=0.5;entryDx=0;entryDy=0;" parent="1" source="RILJoQEWwzmWJmmzdWhP-22" target="RILJoQEWwzmWJmmzdWhP-11" edge="1">
          <mxGeometry width="50" height="50" relative="1" as="geometry">
            <mxPoint x="130" y="240" as="sourcePoint" />
            <mxPoint x="241" y="390" as="targetPoint" />
          </mxGeometry>
        </mxCell>
        <mxCell id="I1S-UfA_8mbZQqfXlzqB-9" value="" style="endArrow=none;html=1;rounded=0;exitX=1;exitY=0.5;exitDx=0;exitDy=0;entryX=0;entryY=0.5;entryDx=0;entryDy=0;" parent="1" source="I1S-UfA_8mbZQqfXlzqB-1" target="RILJoQEWwzmWJmmzdWhP-11" edge="1">
          <mxGeometry width="50" height="50" relative="1" as="geometry">
            <mxPoint x="140" y="250" as="sourcePoint" />
            <mxPoint x="251" y="400" as="targetPoint" />
          </mxGeometry>
        </mxCell>
        <mxCell id="I1S-UfA_8mbZQqfXlzqB-10" value="" style="endArrow=none;html=1;rounded=0;exitX=1;exitY=0.5;exitDx=0;exitDy=0;entryX=0;entryY=0.5;entryDx=0;entryDy=0;" parent="1" source="I1S-UfA_8mbZQqfXlzqB-6" target="RILJoQEWwzmWJmmzdWhP-11" edge="1">
          <mxGeometry width="50" height="50" relative="1" as="geometry">
            <mxPoint x="150" y="260" as="sourcePoint" />
            <mxPoint x="261" y="410" as="targetPoint" />
          </mxGeometry>
        </mxCell>
        <mxCell id="I1S-UfA_8mbZQqfXlzqB-11" value="" style="endArrow=none;html=1;rounded=0;exitX=1;exitY=0.5;exitDx=0;exitDy=0;entryX=0;entryY=0.5;entryDx=0;entryDy=0;" parent="1" source="I1S-UfA_8mbZQqfXlzqB-2" target="RILJoQEWwzmWJmmzdWhP-11" edge="1">
          <mxGeometry width="50" height="50" relative="1" as="geometry">
            <mxPoint x="160" y="270" as="sourcePoint" />
            <mxPoint x="271" y="420" as="targetPoint" />
          </mxGeometry>
        </mxCell>
        <mxCell id="I1S-UfA_8mbZQqfXlzqB-12" value="" style="endArrow=none;html=1;rounded=0;exitX=1;exitY=0.5;exitDx=0;exitDy=0;entryX=0;entryY=0.5;entryDx=0;entryDy=0;" parent="1" source="I1S-UfA_8mbZQqfXlzqB-5" target="RILJoQEWwzmWJmmzdWhP-11" edge="1">
          <mxGeometry width="50" height="50" relative="1" as="geometry">
            <mxPoint x="170" y="280" as="sourcePoint" />
            <mxPoint x="281" y="430" as="targetPoint" />
          </mxGeometry>
        </mxCell>
        <mxCell id="I1S-UfA_8mbZQqfXlzqB-13" value="" style="endArrow=none;html=1;rounded=0;exitX=1;exitY=0.5;exitDx=0;exitDy=0;entryX=0;entryY=0.5;entryDx=0;entryDy=0;" parent="1" source="I1S-UfA_8mbZQqfXlzqB-4" target="RILJoQEWwzmWJmmzdWhP-11" edge="1">
          <mxGeometry width="50" height="50" relative="1" as="geometry">
            <mxPoint x="180" y="290" as="sourcePoint" />
            <mxPoint x="291" y="440" as="targetPoint" />
          </mxGeometry>
        </mxCell>
        <mxCell id="I1S-UfA_8mbZQqfXlzqB-14" value="" style="endArrow=none;html=1;rounded=0;exitX=1;exitY=0.5;exitDx=0;exitDy=0;entryX=0;entryY=0.5;entryDx=0;entryDy=0;" parent="1" source="I1S-UfA_8mbZQqfXlzqB-3" target="RILJoQEWwzmWJmmzdWhP-11" edge="1">
          <mxGeometry width="50" height="50" relative="1" as="geometry">
            <mxPoint x="190" y="300" as="sourcePoint" />
            <mxPoint x="301" y="450" as="targetPoint" />
          </mxGeometry>
        </mxCell>
        <mxCell id="v8aYDQcuzWpAuii8lj9a-11" style="edgeStyle=orthogonalEdgeStyle;rounded=0;orthogonalLoop=1;jettySize=auto;html=1;exitX=0.25;exitY=0;exitDx=0;exitDy=0;entryX=0.5;entryY=1;entryDx=0;entryDy=0;startArrow=classic;startFill=1;" parent="1" source="I1S-UfA_8mbZQqfXlzqB-15" target="I1S-UfA_8mbZQqfXlzqB-38" edge="1">
          <mxGeometry relative="1" as="geometry" />
        </mxCell>
        <mxCell id="v8aYDQcuzWpAuii8lj9a-12" style="edgeStyle=orthogonalEdgeStyle;rounded=0;orthogonalLoop=1;jettySize=auto;html=1;exitX=0.75;exitY=0;exitDx=0;exitDy=0;entryX=0.5;entryY=1;entryDx=0;entryDy=0;endArrow=classic;endFill=1;startArrow=classic;startFill=1;" parent="1" source="I1S-UfA_8mbZQqfXlzqB-15" target="v8aYDQcuzWpAuii8lj9a-10" edge="1">
          <mxGeometry relative="1" as="geometry" />
        </mxCell>
        <mxCell id="I1S-UfA_8mbZQqfXlzqB-15" value="PUBLICACION" style="rounded=0;whiteSpace=wrap;html=1;fillColor=#dae8fc;strokeColor=#6c8ebf;" parent="1" vertex="1">
          <mxGeometry x="810.5" y="155.5" width="140" height="40" as="geometry" />
        </mxCell>
        <mxCell id="I1S-UfA_8mbZQqfXlzqB-16" value="ID_PUBLICATION&amp;nbsp;" style="ellipse;whiteSpace=wrap;html=1;fillColor=#e1d5e7;strokeColor=#9673a6;" parent="1" vertex="1">
          <mxGeometry x="719.5" y="270" width="90" height="40" as="geometry" />
        </mxCell>
        <mxCell id="I1S-UfA_8mbZQqfXlzqB-17" value="BOOK_DESCRIPTION" style="ellipse;whiteSpace=wrap;html=1;fillColor=#e1d5e7;strokeColor=#9673a6;" parent="1" vertex="1">
          <mxGeometry x="1145.5" y="-464.5" width="90" height="40" as="geometry" />
        </mxCell>
        <mxCell id="I1S-UfA_8mbZQqfXlzqB-21" value="PUBLICATION_DESCRIPTION" style="ellipse;whiteSpace=wrap;html=1;fillColor=#e1d5e7;strokeColor=#9673a6;" parent="1" vertex="1">
          <mxGeometry x="1023.18" y="280" width="90" height="40" as="geometry" />
        </mxCell>
        <mxCell id="I1S-UfA_8mbZQqfXlzqB-22" value="TITLE" style="ellipse;whiteSpace=wrap;html=1;fillColor=#e1d5e7;strokeColor=#9673a6;" parent="1" vertex="1">
          <mxGeometry x="1195.5" y="-424.5" width="90" height="40" as="geometry" />
        </mxCell>
        <mxCell id="I1S-UfA_8mbZQqfXlzqB-24" value="DATE_PUBLICATION" style="ellipse;whiteSpace=wrap;html=1;fillColor=#e1d5e7;strokeColor=#9673a6;" parent="1" vertex="1">
          <mxGeometry x="579.5" y="195.5" width="90" height="40" as="geometry" />
        </mxCell>
        <mxCell id="I1S-UfA_8mbZQqfXlzqB-25" value="PRICE" style="ellipse;whiteSpace=wrap;html=1;fillColor=#e1d5e7;strokeColor=#9673a6;" parent="1" vertex="1">
          <mxGeometry x="640" y="235.5" width="90" height="40" as="geometry" />
        </mxCell>
        <mxCell id="I1S-UfA_8mbZQqfXlzqB-28" value="ID_USER" style="ellipse;whiteSpace=wrap;html=1;fillColor=#e1d5e7;strokeColor=#9673a6;" parent="1" vertex="1">
          <mxGeometry x="902.68" y="300" width="90" height="40" as="geometry" />
        </mxCell>
        <mxCell id="I1S-UfA_8mbZQqfXlzqB-30" value="MENSAJE" style="rounded=0;whiteSpace=wrap;html=1;fillColor=#dae8fc;strokeColor=#6c8ebf;" parent="1" vertex="1">
          <mxGeometry x="719.5" y="-134.5" width="140" height="40" as="geometry" />
        </mxCell>
        <mxCell id="I1S-UfA_8mbZQqfXlzqB-31" value="ID_PUBLICATION&amp;nbsp;" style="ellipse;whiteSpace=wrap;html=1;fillColor=#e1d5e7;strokeColor=#9673a6;" parent="1" vertex="1">
          <mxGeometry x="460" y="-284.5" width="90" height="40" as="geometry" />
        </mxCell>
        <mxCell id="I1S-UfA_8mbZQqfXlzqB-33" value="CONTENT" style="ellipse;whiteSpace=wrap;html=1;fillColor=#e1d5e7;strokeColor=#9673a6;" parent="1" vertex="1">
          <mxGeometry x="649.5" y="-384.5" width="90" height="40" as="geometry" />
        </mxCell>
        <mxCell id="I1S-UfA_8mbZQqfXlzqB-34" value="DATE_OF_MESSAGE" style="ellipse;whiteSpace=wrap;html=1;fillColor=#e1d5e7;strokeColor=#9673a6;" parent="1" vertex="1">
          <mxGeometry x="480" y="-234.5" width="90" height="40" as="geometry" />
        </mxCell>
        <mxCell id="I1S-UfA_8mbZQqfXlzqB-35" value="REPLY" style="ellipse;whiteSpace=wrap;html=1;fillColor=#e1d5e7;strokeColor=#9673a6;" parent="1" vertex="1">
          <mxGeometry x="749.5" y="-384.5" width="90" height="40" as="geometry" />
        </mxCell>
        <mxCell id="v8aYDQcuzWpAuii8lj9a-14" style="edgeStyle=orthogonalEdgeStyle;rounded=0;orthogonalLoop=1;jettySize=auto;html=1;exitX=0.5;exitY=0;exitDx=0;exitDy=0;entryX=0.5;entryY=1;entryDx=0;entryDy=0;startArrow=classic;startFill=1;" parent="1" source="I1S-UfA_8mbZQqfXlzqB-38" target="I1S-UfA_8mbZQqfXlzqB-30" edge="1">
          <mxGeometry relative="1" as="geometry" />
        </mxCell>
        <mxCell id="I1S-UfA_8mbZQqfXlzqB-38" value="SE COMPONE DE" style="rhombus;whiteSpace=wrap;html=1;fillColor=#fff2cc;strokeColor=#d6b656;" parent="1" vertex="1">
          <mxGeometry x="719.5" y="15.5" width="140" height="50" as="geometry" />
        </mxCell>
        <mxCell id="I1S-UfA_8mbZQqfXlzqB-42" value="&lt;font style=&quot;font-size: 20px;&quot;&gt;1&lt;/font&gt;" style="text;html=1;align=center;verticalAlign=middle;resizable=0;points=[];autosize=1;strokeColor=none;fillColor=none;" parent="1" vertex="1">
          <mxGeometry x="410" y="400" width="30" height="40" as="geometry" />
        </mxCell>
        <mxCell id="z2t-uiW_qvNyzI8gylco-3" style="edgeStyle=orthogonalEdgeStyle;rounded=0;orthogonalLoop=1;jettySize=auto;html=1;exitX=0.25;exitY=1;exitDx=0;exitDy=0;entryX=0.5;entryY=0;entryDx=0;entryDy=0;startArrow=classic;startFill=1;" parent="1" source="I1S-UfA_8mbZQqfXlzqB-56" target="I1S-UfA_8mbZQqfXlzqB-99" edge="1">
          <mxGeometry relative="1" as="geometry" />
        </mxCell>
        <mxCell id="z2t-uiW_qvNyzI8gylco-6" style="edgeStyle=orthogonalEdgeStyle;rounded=0;orthogonalLoop=1;jettySize=auto;html=1;exitX=0.75;exitY=1;exitDx=0;exitDy=0;entryX=0.5;entryY=0;entryDx=0;entryDy=0;startArrow=classic;startFill=1;" parent="1" source="I1S-UfA_8mbZQqfXlzqB-56" target="z2t-uiW_qvNyzI8gylco-4" edge="1">
          <mxGeometry relative="1" as="geometry" />
        </mxCell>
        <mxCell id="I1S-UfA_8mbZQqfXlzqB-56" value="COMPRA" style="rounded=0;whiteSpace=wrap;html=1;fillColor=#dae8fc;strokeColor=#6c8ebf;" parent="1" vertex="1">
          <mxGeometry x="812.68" y="530" width="140" height="40" as="geometry" />
        </mxCell>
        <mxCell id="I1S-UfA_8mbZQqfXlzqB-71" value="&lt;font style=&quot;font-size: 20px;&quot;&gt;*&lt;/font&gt;" style="text;html=1;align=center;verticalAlign=middle;resizable=0;points=[];autosize=1;strokeColor=none;fillColor=none;" parent="1" vertex="1">
          <mxGeometry x="651.5" y="135.5" width="30" height="40" as="geometry" />
        </mxCell>
        <mxCell id="I1S-UfA_8mbZQqfXlzqB-74" value="" style="endArrow=none;html=1;rounded=0;entryX=1;entryY=0.5;entryDx=0;entryDy=0;" parent="1" target="I1S-UfA_8mbZQqfXlzqB-24" edge="1">
          <mxGeometry width="50" height="50" relative="1" as="geometry">
            <mxPoint x="880.5" y="195.5" as="sourcePoint" />
            <mxPoint x="710.5" y="305.5" as="targetPoint" />
          </mxGeometry>
        </mxCell>
        <mxCell id="I1S-UfA_8mbZQqfXlzqB-78" value="" style="endArrow=none;html=1;rounded=0;entryX=0.5;entryY=0;entryDx=0;entryDy=0;exitX=0.5;exitY=1;exitDx=0;exitDy=0;" parent="1" source="I1S-UfA_8mbZQqfXlzqB-15" target="I1S-UfA_8mbZQqfXlzqB-16" edge="1">
          <mxGeometry width="50" height="50" relative="1" as="geometry">
            <mxPoint x="890.5" y="205.5" as="sourcePoint" />
            <mxPoint x="745.5" y="445.5" as="targetPoint" />
          </mxGeometry>
        </mxCell>
        <mxCell id="I1S-UfA_8mbZQqfXlzqB-79" value="" style="endArrow=none;html=1;rounded=0;entryX=0.5;entryY=0;entryDx=0;entryDy=0;exitX=0.5;exitY=1;exitDx=0;exitDy=0;" parent="1" source="I1S-UfA_8mbZQqfXlzqB-15" target="I1S-UfA_8mbZQqfXlzqB-28" edge="1">
          <mxGeometry width="50" height="50" relative="1" as="geometry">
            <mxPoint x="890.5" y="205.5" as="sourcePoint" />
            <mxPoint x="845.5" y="465.5" as="targetPoint" />
          </mxGeometry>
        </mxCell>
        <mxCell id="I1S-UfA_8mbZQqfXlzqB-84" value="" style="endArrow=none;html=1;rounded=0;entryX=0;entryY=0.5;entryDx=0;entryDy=0;exitX=0.5;exitY=1;exitDx=0;exitDy=0;" parent="1" source="I1S-UfA_8mbZQqfXlzqB-15" target="I1S-UfA_8mbZQqfXlzqB-21" edge="1">
          <mxGeometry width="50" height="50" relative="1" as="geometry">
            <mxPoint x="890.5" y="205.5" as="sourcePoint" />
            <mxPoint x="1020.5" y="280.5" as="targetPoint" />
          </mxGeometry>
        </mxCell>
        <mxCell id="I1S-UfA_8mbZQqfXlzqB-85" value="ID_PUBLICATION" style="ellipse;whiteSpace=wrap;html=1;fillColor=#e1d5e7;strokeColor=#9673a6;" parent="1" vertex="1">
          <mxGeometry x="642.68" y="440" width="90" height="40" as="geometry" />
        </mxCell>
        <mxCell id="I1S-UfA_8mbZQqfXlzqB-86" value="ID_PURCHASE" style="ellipse;whiteSpace=wrap;html=1;fillColor=#e1d5e7;strokeColor=#9673a6;" parent="1" vertex="1">
          <mxGeometry x="624.18" y="490" width="90" height="40" as="geometry" />
        </mxCell>
        <mxCell id="I1S-UfA_8mbZQqfXlzqB-87" value="DATE_OF_PURCHASE" style="ellipse;whiteSpace=wrap;html=1;fillColor=#e1d5e7;strokeColor=#9673a6;" parent="1" vertex="1">
          <mxGeometry x="802.68" y="380" width="90" height="40" as="geometry" />
        </mxCell>
        <mxCell id="I1S-UfA_8mbZQqfXlzqB-88" value="ID_USER" style="ellipse;whiteSpace=wrap;html=1;fillColor=#e1d5e7;strokeColor=#9673a6;" parent="1" vertex="1">
          <mxGeometry x="703.18" y="400" width="90" height="40" as="geometry" />
        </mxCell>
        <mxCell id="I1S-UfA_8mbZQqfXlzqB-91" value="ID_SHIPPING" style="ellipse;whiteSpace=wrap;html=1;fillColor=#e1d5e7;strokeColor=#9673a6;" parent="1" vertex="1">
          <mxGeometry x="923.18" y="380" width="90" height="40" as="geometry" />
        </mxCell>
        <mxCell id="I1S-UfA_8mbZQqfXlzqB-93" value="ENVIO" style="rounded=0;whiteSpace=wrap;html=1;fillColor=#dae8fc;strokeColor=#6c8ebf;" parent="1" vertex="1">
          <mxGeometry x="539.5" y="710" width="140" height="40" as="geometry" />
        </mxCell>
        <mxCell id="I1S-UfA_8mbZQqfXlzqB-94" value="ID_SHIPPING" style="ellipse;whiteSpace=wrap;html=1;fillColor=#e1d5e7;strokeColor=#9673a6;" parent="1" vertex="1">
          <mxGeometry x="410" y="800" width="90" height="40" as="geometry" />
        </mxCell>
        <mxCell id="I1S-UfA_8mbZQqfXlzqB-96" value="SHIPPING_ADDRESS" style="ellipse;whiteSpace=wrap;html=1;fillColor=#e1d5e7;strokeColor=#9673a6;" parent="1" vertex="1">
          <mxGeometry x="510" y="830" width="90" height="40" as="geometry" />
        </mxCell>
        <mxCell id="I1S-UfA_8mbZQqfXlzqB-97" value="PRICE" style="ellipse;whiteSpace=wrap;html=1;fillColor=#e1d5e7;strokeColor=#9673a6;" parent="1" vertex="1">
          <mxGeometry x="624.18" y="830" width="90" height="40" as="geometry" />
        </mxCell>
        <mxCell id="I1S-UfA_8mbZQqfXlzqB-98" style="edgeStyle=orthogonalEdgeStyle;rounded=0;orthogonalLoop=1;jettySize=auto;html=1;exitX=0.5;exitY=1;exitDx=0;exitDy=0;" parent="1" source="I1S-UfA_8mbZQqfXlzqB-96" target="I1S-UfA_8mbZQqfXlzqB-96" edge="1">
          <mxGeometry relative="1" as="geometry" />
        </mxCell>
        <mxCell id="z2t-uiW_qvNyzI8gylco-8" style="edgeStyle=orthogonalEdgeStyle;rounded=0;orthogonalLoop=1;jettySize=auto;html=1;exitX=0.5;exitY=1;exitDx=0;exitDy=0;entryX=0.5;entryY=0;entryDx=0;entryDy=0;startArrow=classic;startFill=1;" parent="1" source="I1S-UfA_8mbZQqfXlzqB-99" target="I1S-UfA_8mbZQqfXlzqB-93" edge="1">
          <mxGeometry relative="1" as="geometry" />
        </mxCell>
        <mxCell id="I1S-UfA_8mbZQqfXlzqB-99" value="SE COMPONE DE" style="rhombus;whiteSpace=wrap;html=1;fillColor=#fff2cc;strokeColor=#d6b656;" parent="1" vertex="1">
          <mxGeometry x="719.5" y="620" width="140" height="50" as="geometry" />
        </mxCell>
        <mxCell id="I1S-UfA_8mbZQqfXlzqB-106" value="&lt;font style=&quot;font-size: 20px;&quot;&gt;*&lt;/font&gt;" style="text;html=1;align=center;verticalAlign=middle;resizable=0;points=[];autosize=1;strokeColor=none;fillColor=none;" parent="1" vertex="1">
          <mxGeometry x="687.68" y="550" width="30" height="40" as="geometry" />
        </mxCell>
        <mxCell id="I1S-UfA_8mbZQqfXlzqB-107" value="&lt;font style=&quot;font-size: 20px;&quot;&gt;1&lt;/font&gt;" style="text;html=1;align=center;verticalAlign=middle;resizable=0;points=[];autosize=1;strokeColor=none;fillColor=none;" parent="1" vertex="1">
          <mxGeometry x="733.1800000000001" y="570" width="30" height="40" as="geometry" />
        </mxCell>
        <mxCell id="I1S-UfA_8mbZQqfXlzqB-108" value="&lt;font style=&quot;font-size: 20px;&quot;&gt;1&lt;/font&gt;" style="text;html=1;align=center;verticalAlign=middle;resizable=0;points=[];autosize=1;strokeColor=none;fillColor=none;" parent="1" vertex="1">
          <mxGeometry x="709.5" y="690" width="30" height="40" as="geometry" />
        </mxCell>
        <mxCell id="I1S-UfA_8mbZQqfXlzqB-109" value="" style="endArrow=none;html=1;rounded=0;entryX=0.5;entryY=0;entryDx=0;entryDy=0;exitX=1;exitY=1;exitDx=0;exitDy=0;" parent="1" source="I1S-UfA_8mbZQqfXlzqB-85" target="I1S-UfA_8mbZQqfXlzqB-56" edge="1">
          <mxGeometry width="50" height="50" relative="1" as="geometry">
            <mxPoint x="712.68" y="710" as="sourcePoint" />
            <mxPoint x="892.68" y="670" as="targetPoint" />
          </mxGeometry>
        </mxCell>
        <mxCell id="I1S-UfA_8mbZQqfXlzqB-110" value="" style="endArrow=none;html=1;rounded=0;entryX=0.5;entryY=0;entryDx=0;entryDy=0;exitX=1;exitY=0.5;exitDx=0;exitDy=0;" parent="1" source="I1S-UfA_8mbZQqfXlzqB-86" target="I1S-UfA_8mbZQqfXlzqB-56" edge="1">
          <mxGeometry width="50" height="50" relative="1" as="geometry">
            <mxPoint x="742.68" y="450" as="sourcePoint" />
            <mxPoint x="892.68" y="540" as="targetPoint" />
          </mxGeometry>
        </mxCell>
        <mxCell id="I1S-UfA_8mbZQqfXlzqB-111" value="" style="endArrow=none;html=1;rounded=0;entryX=0.5;entryY=0;entryDx=0;entryDy=0;exitX=0.5;exitY=1;exitDx=0;exitDy=0;" parent="1" source="I1S-UfA_8mbZQqfXlzqB-88" target="I1S-UfA_8mbZQqfXlzqB-56" edge="1">
          <mxGeometry width="50" height="50" relative="1" as="geometry">
            <mxPoint x="753.68" y="400" as="sourcePoint" />
            <mxPoint x="892.68" y="540" as="targetPoint" />
          </mxGeometry>
        </mxCell>
        <mxCell id="I1S-UfA_8mbZQqfXlzqB-112" value="" style="endArrow=none;html=1;rounded=0;entryX=0.5;entryY=0;entryDx=0;entryDy=0;exitX=0.5;exitY=1;exitDx=0;exitDy=0;" parent="1" source="I1S-UfA_8mbZQqfXlzqB-87" target="I1S-UfA_8mbZQqfXlzqB-56" edge="1">
          <mxGeometry width="50" height="50" relative="1" as="geometry">
            <mxPoint x="789.68" y="369" as="sourcePoint" />
            <mxPoint x="892.68" y="540" as="targetPoint" />
          </mxGeometry>
        </mxCell>
        <mxCell id="I1S-UfA_8mbZQqfXlzqB-114" value="" style="endArrow=none;html=1;rounded=0;entryX=0.5;entryY=0;entryDx=0;entryDy=0;exitX=0;exitY=1;exitDx=0;exitDy=0;" parent="1" source="I1S-UfA_8mbZQqfXlzqB-91" target="I1S-UfA_8mbZQqfXlzqB-56" edge="1">
          <mxGeometry width="50" height="50" relative="1" as="geometry">
            <mxPoint x="967.68" y="340" as="sourcePoint" />
            <mxPoint x="892.68" y="540" as="targetPoint" />
          </mxGeometry>
        </mxCell>
        <mxCell id="GzwfzTAWHC4oBi72npxO-4" value="&lt;font style=&quot;font-size: 20px;&quot;&gt;1:N&lt;/font&gt;" style="text;html=1;align=center;verticalAlign=middle;resizable=0;points=[];autosize=1;strokeColor=none;fillColor=none;" parent="1" vertex="1">
          <mxGeometry x="510" y="230" width="50" height="40" as="geometry" />
        </mxCell>
        <mxCell id="GzwfzTAWHC4oBi72npxO-5" value="&lt;font style=&quot;font-size: 20px;&quot;&gt;1:N&lt;/font&gt;" style="text;html=1;align=center;verticalAlign=middle;resizable=0;points=[];autosize=1;strokeColor=none;fillColor=none;" parent="1" vertex="1">
          <mxGeometry x="479.5" y="435" width="50" height="40" as="geometry" />
        </mxCell>
        <mxCell id="GzwfzTAWHC4oBi72npxO-7" value="&lt;font style=&quot;font-size: 20px;&quot;&gt;1:1&lt;/font&gt;" style="text;html=1;align=center;verticalAlign=middle;resizable=0;points=[];autosize=1;strokeColor=none;fillColor=none;" parent="1" vertex="1">
          <mxGeometry x="669.5" y="625" width="50" height="40" as="geometry" />
        </mxCell>
        <mxCell id="GzwfzTAWHC4oBi72npxO-8" value="STOCK" style="ellipse;whiteSpace=wrap;html=1;fillColor=#e1d5e7;strokeColor=#9673a6;" parent="1" vertex="1">
          <mxGeometry x="809.5000000000001" y="300" width="90" height="40" as="geometry" />
        </mxCell>
        <mxCell id="GzwfzTAWHC4oBi72npxO-9" value="" style="endArrow=none;html=1;rounded=0;entryX=0.5;entryY=0;entryDx=0;entryDy=0;exitX=0.5;exitY=1;exitDx=0;exitDy=0;" parent="1" source="I1S-UfA_8mbZQqfXlzqB-15" target="GzwfzTAWHC4oBi72npxO-8" edge="1">
          <mxGeometry width="50" height="50" relative="1" as="geometry">
            <mxPoint x="890.5" y="205.5" as="sourcePoint" />
            <mxPoint x="800.5" y="455.5" as="targetPoint" />
          </mxGeometry>
        </mxCell>
        <mxCell id="GzwfzTAWHC4oBi72npxO-11" value="" style="endArrow=none;html=1;rounded=0;entryX=0.5;entryY=0;entryDx=0;entryDy=0;" parent="1" target="I1S-UfA_8mbZQqfXlzqB-25" edge="1">
          <mxGeometry width="50" height="50" relative="1" as="geometry">
            <mxPoint x="880.5" y="195.5" as="sourcePoint" />
            <mxPoint x="682.5" y="396.5" as="targetPoint" />
          </mxGeometry>
        </mxCell>
        <mxCell id="GzwfzTAWHC4oBi72npxO-12" value="DATE_OF_SHIPPING" style="ellipse;whiteSpace=wrap;html=1;fillColor=#e1d5e7;strokeColor=#9673a6;" parent="1" vertex="1">
          <mxGeometry x="739.5" y="800" width="90" height="40" as="geometry" />
        </mxCell>
        <mxCell id="GzwfzTAWHC4oBi72npxO-13" value="" style="endArrow=none;html=1;rounded=0;entryX=0.5;entryY=1;entryDx=0;entryDy=0;exitX=1;exitY=0;exitDx=0;exitDy=0;" parent="1" source="I1S-UfA_8mbZQqfXlzqB-94" target="I1S-UfA_8mbZQqfXlzqB-93" edge="1">
          <mxGeometry width="50" height="50" relative="1" as="geometry">
            <mxPoint x="456.8198051533945" y="795.8578643762689" as="sourcePoint" />
            <mxPoint x="799.5" y="680" as="targetPoint" />
          </mxGeometry>
        </mxCell>
        <mxCell id="GzwfzTAWHC4oBi72npxO-15" value="" style="endArrow=none;html=1;rounded=0;exitX=0.5;exitY=0;exitDx=0;exitDy=0;" parent="1" source="I1S-UfA_8mbZQqfXlzqB-96" edge="1">
          <mxGeometry width="50" height="50" relative="1" as="geometry">
            <mxPoint x="516.5" y="840" as="sourcePoint" />
            <mxPoint x="609.5" y="750" as="targetPoint" />
          </mxGeometry>
        </mxCell>
        <mxCell id="GzwfzTAWHC4oBi72npxO-16" value="" style="endArrow=none;html=1;rounded=0;exitX=0.5;exitY=0;exitDx=0;exitDy=0;entryX=0.5;entryY=1;entryDx=0;entryDy=0;" parent="1" source="I1S-UfA_8mbZQqfXlzqB-97" target="I1S-UfA_8mbZQqfXlzqB-93" edge="1">
          <mxGeometry width="50" height="50" relative="1" as="geometry">
            <mxPoint x="625.5" y="840" as="sourcePoint" />
            <mxPoint x="619.5" y="760" as="targetPoint" />
          </mxGeometry>
        </mxCell>
        <mxCell id="GzwfzTAWHC4oBi72npxO-17" value="" style="endArrow=none;html=1;rounded=0;exitX=0;exitY=0;exitDx=0;exitDy=0;entryX=0.5;entryY=1;entryDx=0;entryDy=0;" parent="1" source="GzwfzTAWHC4oBi72npxO-12" target="I1S-UfA_8mbZQqfXlzqB-93" edge="1">
          <mxGeometry width="50" height="50" relative="1" as="geometry">
            <mxPoint x="734.5" y="840" as="sourcePoint" />
            <mxPoint x="619.5" y="760" as="targetPoint" />
          </mxGeometry>
        </mxCell>
        <mxCell id="GzwfzTAWHC4oBi72npxO-19" value="ID_USER" style="ellipse;whiteSpace=wrap;html=1;fillColor=#e1d5e7;strokeColor=#9673a6;" parent="1" vertex="1">
          <mxGeometry x="489.5" y="-334.5" width="90" height="40" as="geometry" />
        </mxCell>
        <mxCell id="GzwfzTAWHC4oBi72npxO-24" value="PAYMENT_METHOD" style="ellipse;whiteSpace=wrap;html=1;fillColor=#e1d5e7;strokeColor=#9673a6;" parent="1" vertex="1">
          <mxGeometry x="1003.18" y="410" width="90" height="40" as="geometry" />
        </mxCell>
        <mxCell id="GzwfzTAWHC4oBi72npxO-25" value="" style="endArrow=none;html=1;rounded=0;entryX=0.5;entryY=0;entryDx=0;entryDy=0;exitX=0;exitY=0.5;exitDx=0;exitDy=0;" parent="1" source="GzwfzTAWHC4oBi72npxO-24" target="I1S-UfA_8mbZQqfXlzqB-56" edge="1">
          <mxGeometry width="50" height="50" relative="1" as="geometry">
            <mxPoint x="983.68" y="460" as="sourcePoint" />
            <mxPoint x="892.68" y="540" as="targetPoint" />
          </mxGeometry>
        </mxCell>
        <mxCell id="GzwfzTAWHC4oBi72npxO-26" value="BOOK_SKU" style="ellipse;whiteSpace=wrap;html=1;fillColor=#e1d5e7;strokeColor=#9673a6;" parent="1" vertex="1">
          <mxGeometry x="1065.5" y="-494.5" width="90" height="40" as="geometry" />
        </mxCell>
        <mxCell id="v8aYDQcuzWpAuii8lj9a-6" style="edgeStyle=orthogonalEdgeStyle;rounded=0;orthogonalLoop=1;jettySize=auto;html=1;exitX=0.5;exitY=1;exitDx=0;exitDy=0;entryX=0;entryY=0.5;entryDx=0;entryDy=0;startArrow=classicThin;startFill=1;" parent="1" source="v8aYDQcuzWpAuii8lj9a-1" target="I1S-UfA_8mbZQqfXlzqB-56" edge="1">
          <mxGeometry relative="1" as="geometry" />
        </mxCell>
        <mxCell id="v8aYDQcuzWpAuii8lj9a-1" value="REALIZA" style="rhombus;whiteSpace=wrap;html=1;fillColor=#fff2cc;strokeColor=#d6b656;" parent="1" vertex="1">
          <mxGeometry x="400" y="460" width="140" height="50" as="geometry" />
        </mxCell>
        <mxCell id="v8aYDQcuzWpAuii8lj9a-7" value="ID_MESSAGE" style="ellipse;whiteSpace=wrap;html=1;fillColor=#e1d5e7;strokeColor=#9673a6;" parent="1" vertex="1">
          <mxGeometry x="550" y="-374.5" width="90" height="40" as="geometry" />
        </mxCell>
        <mxCell id="v8aYDQcuzWpAuii8lj9a-15" style="edgeStyle=orthogonalEdgeStyle;rounded=0;orthogonalLoop=1;jettySize=auto;html=1;exitX=0.5;exitY=0;exitDx=0;exitDy=0;entryX=0.5;entryY=1;entryDx=0;entryDy=0;startArrow=classic;startFill=1;" parent="1" source="v8aYDQcuzWpAuii8lj9a-10" target="v8aYDQcuzWpAuii8lj9a-13" edge="1">
          <mxGeometry relative="1" as="geometry" />
        </mxCell>
        <mxCell id="v8aYDQcuzWpAuii8lj9a-10" value="SE COMPONE DE" style="rhombus;whiteSpace=wrap;html=1;fillColor=#fff2cc;strokeColor=#d6b656;" parent="1" vertex="1">
          <mxGeometry x="900.5" y="15.5" width="140" height="50" as="geometry" />
        </mxCell>
        <mxCell id="sT4HITuChMw9f5yusegR-18" style="edgeStyle=orthogonalEdgeStyle;rounded=0;orthogonalLoop=1;jettySize=auto;html=1;exitX=1;exitY=0.5;exitDx=0;exitDy=0;entryX=0;entryY=0.5;entryDx=0;entryDy=0;" parent="1" source="v8aYDQcuzWpAuii8lj9a-13" target="sT4HITuChMw9f5yusegR-8" edge="1">
          <mxGeometry relative="1" as="geometry" />
        </mxCell>
        <mxCell id="sT4HITuChMw9f5yusegR-19" style="edgeStyle=orthogonalEdgeStyle;rounded=0;orthogonalLoop=1;jettySize=auto;html=1;exitX=1;exitY=0.25;exitDx=0;exitDy=0;entryX=0;entryY=0.5;entryDx=0;entryDy=0;" parent="1" source="v8aYDQcuzWpAuii8lj9a-13" target="sT4HITuChMw9f5yusegR-10" edge="1">
          <mxGeometry relative="1" as="geometry" />
        </mxCell>
        <mxCell id="sT4HITuChMw9f5yusegR-20" style="edgeStyle=orthogonalEdgeStyle;rounded=0;orthogonalLoop=1;jettySize=auto;html=1;exitX=1;exitY=0.75;exitDx=0;exitDy=0;entryX=0;entryY=0.5;entryDx=0;entryDy=0;" parent="1" source="v8aYDQcuzWpAuii8lj9a-13" target="sT4HITuChMw9f5yusegR-17" edge="1">
          <mxGeometry relative="1" as="geometry" />
        </mxCell>
        <mxCell id="v8aYDQcuzWpAuii8lj9a-13" value="FICHA_LIBRO" style="rounded=0;whiteSpace=wrap;html=1;fillColor=#dae8fc;strokeColor=#6c8ebf;" parent="1" vertex="1">
          <mxGeometry x="900.5" y="-134.5" width="140" height="40" as="geometry" />
        </mxCell>
        <mxCell id="v8aYDQcuzWpAuii8lj9a-20" value="" style="endArrow=none;html=1;rounded=0;entryX=0.5;entryY=1;entryDx=0;entryDy=0;exitX=0.5;exitY=0;exitDx=0;exitDy=0;" parent="1" source="I1S-UfA_8mbZQqfXlzqB-30" target="I1S-UfA_8mbZQqfXlzqB-35" edge="1">
          <mxGeometry width="50" height="50" relative="1" as="geometry">
            <mxPoint x="740.5" y="-164.5" as="sourcePoint" />
            <mxPoint x="790.5" y="-214.5" as="targetPoint" />
          </mxGeometry>
        </mxCell>
        <mxCell id="v8aYDQcuzWpAuii8lj9a-21" value="" style="endArrow=none;html=1;rounded=0;entryX=0.5;entryY=1;entryDx=0;entryDy=0;exitX=0.5;exitY=0;exitDx=0;exitDy=0;" parent="1" source="I1S-UfA_8mbZQqfXlzqB-30" target="I1S-UfA_8mbZQqfXlzqB-33" edge="1">
          <mxGeometry width="50" height="50" relative="1" as="geometry">
            <mxPoint x="710" y="-134.5" as="sourcePoint" />
            <mxPoint x="715" y="-344.5" as="targetPoint" />
          </mxGeometry>
        </mxCell>
        <mxCell id="v8aYDQcuzWpAuii8lj9a-22" value="" style="endArrow=none;html=1;rounded=0;entryX=1;entryY=1;entryDx=0;entryDy=0;exitX=0.5;exitY=0;exitDx=0;exitDy=0;" parent="1" source="I1S-UfA_8mbZQqfXlzqB-30" target="v8aYDQcuzWpAuii8lj9a-7" edge="1">
          <mxGeometry width="50" height="50" relative="1" as="geometry">
            <mxPoint x="799.5" y="-124.5" as="sourcePoint" />
            <mxPoint x="704.5" y="-334.5" as="targetPoint" />
          </mxGeometry>
        </mxCell>
        <mxCell id="v8aYDQcuzWpAuii8lj9a-23" value="" style="endArrow=none;html=1;rounded=0;entryX=1;entryY=0.5;entryDx=0;entryDy=0;exitX=0.5;exitY=0;exitDx=0;exitDy=0;" parent="1" source="I1S-UfA_8mbZQqfXlzqB-30" target="GzwfzTAWHC4oBi72npxO-19" edge="1">
          <mxGeometry width="50" height="50" relative="1" as="geometry">
            <mxPoint x="799.5" y="-124.5" as="sourcePoint" />
            <mxPoint x="636.5" y="-330.5" as="targetPoint" />
          </mxGeometry>
        </mxCell>
        <mxCell id="v8aYDQcuzWpAuii8lj9a-24" value="" style="endArrow=none;html=1;rounded=0;entryX=1;entryY=0.5;entryDx=0;entryDy=0;exitX=0.5;exitY=0;exitDx=0;exitDy=0;" parent="1" source="I1S-UfA_8mbZQqfXlzqB-30" target="I1S-UfA_8mbZQqfXlzqB-31" edge="1">
          <mxGeometry width="50" height="50" relative="1" as="geometry">
            <mxPoint x="799.5" y="-124.5" as="sourcePoint" />
            <mxPoint x="589.5" y="-304.5" as="targetPoint" />
          </mxGeometry>
        </mxCell>
        <mxCell id="v8aYDQcuzWpAuii8lj9a-25" value="" style="endArrow=none;html=1;rounded=0;entryX=1;entryY=0.5;entryDx=0;entryDy=0;exitX=0.5;exitY=0;exitDx=0;exitDy=0;" parent="1" source="I1S-UfA_8mbZQqfXlzqB-30" target="I1S-UfA_8mbZQqfXlzqB-34" edge="1">
          <mxGeometry width="50" height="50" relative="1" as="geometry">
            <mxPoint x="799.5" y="-124.5" as="sourcePoint" />
            <mxPoint x="560.5" y="-254.5" as="targetPoint" />
          </mxGeometry>
        </mxCell>
        <mxCell id="v8aYDQcuzWpAuii8lj9a-28" value="" style="endArrow=none;html=1;rounded=0;entryX=0;entryY=1;entryDx=0;entryDy=0;exitX=0.5;exitY=0;exitDx=0;exitDy=0;" parent="1" target="GzwfzTAWHC4oBi72npxO-26" edge="1">
          <mxGeometry width="50" height="50" relative="1" as="geometry">
            <mxPoint x="970" y="-134.5" as="sourcePoint" />
            <mxPoint x="1085" y="-334.5" as="targetPoint" />
          </mxGeometry>
        </mxCell>
        <mxCell id="v8aYDQcuzWpAuii8lj9a-29" value="" style="endArrow=none;html=1;rounded=0;entryX=0;entryY=0.5;entryDx=0;entryDy=0;exitX=0.5;exitY=0;exitDx=0;exitDy=0;" parent="1" target="I1S-UfA_8mbZQqfXlzqB-17" edge="1">
          <mxGeometry width="50" height="50" relative="1" as="geometry">
            <mxPoint x="970" y="-134.5" as="sourcePoint" />
            <mxPoint x="1153" y="-330.5" as="targetPoint" />
          </mxGeometry>
        </mxCell>
        <mxCell id="v8aYDQcuzWpAuii8lj9a-31" value="" style="endArrow=none;html=1;rounded=0;entryX=0;entryY=0.5;entryDx=0;entryDy=0;exitX=0.5;exitY=0;exitDx=0;exitDy=0;" parent="1" target="I1S-UfA_8mbZQqfXlzqB-22" edge="1">
          <mxGeometry width="50" height="50" relative="1" as="geometry">
            <mxPoint x="970" y="-134.5" as="sourcePoint" />
            <mxPoint x="1210" y="-254.5" as="targetPoint" />
          </mxGeometry>
        </mxCell>
        <mxCell id="v8aYDQcuzWpAuii8lj9a-33" value="BOOK" style="ellipse;whiteSpace=wrap;html=1;fillColor=#e1d5e7;strokeColor=#9673a6;" parent="1" vertex="1">
          <mxGeometry x="1120.5" y="195.5" width="90" height="40" as="geometry" />
        </mxCell>
        <mxCell id="v8aYDQcuzWpAuii8lj9a-35" value="" style="endArrow=none;html=1;rounded=0;entryX=0;entryY=0.5;entryDx=0;entryDy=0;exitX=0.5;exitY=1;exitDx=0;exitDy=0;" parent="1" source="I1S-UfA_8mbZQqfXlzqB-15" target="v8aYDQcuzWpAuii8lj9a-33" edge="1">
          <mxGeometry width="50" height="50" relative="1" as="geometry">
            <mxPoint x="890.5" y="205.5" as="sourcePoint" />
            <mxPoint x="1095.5" y="305.5" as="targetPoint" />
          </mxGeometry>
        </mxCell>
        <mxCell id="v8aYDQcuzWpAuii8lj9a-36" value="ID_BOOK" style="ellipse;whiteSpace=wrap;html=1;fillColor=#e1d5e7;strokeColor=#9673a6;" parent="1" vertex="1">
          <mxGeometry x="952.6800000000001" y="-504.5" width="90" height="40" as="geometry" />
        </mxCell>
        <mxCell id="v8aYDQcuzWpAuii8lj9a-37" value="" style="endArrow=none;html=1;rounded=0;entryX=0.5;entryY=1;entryDx=0;entryDy=0;exitX=0.5;exitY=0;exitDx=0;exitDy=0;" parent="1" source="v8aYDQcuzWpAuii8lj9a-13" target="v8aYDQcuzWpAuii8lj9a-36" edge="1">
          <mxGeometry width="50" height="50" relative="1" as="geometry">
            <mxPoint x="980" y="-124.5" as="sourcePoint" />
            <mxPoint x="1005.5" y="-354.5" as="targetPoint" />
          </mxGeometry>
        </mxCell>
        <mxCell id="v8aYDQcuzWpAuii8lj9a-38" value="&lt;font style=&quot;font-size: 20px;&quot;&gt;1&lt;/font&gt;" style="text;html=1;align=center;verticalAlign=middle;resizable=0;points=[];autosize=1;strokeColor=none;fillColor=none;" parent="1" vertex="1">
          <mxGeometry x="420" y="320" width="30" height="40" as="geometry" />
        </mxCell>
        <mxCell id="v8aYDQcuzWpAuii8lj9a-39" value="&lt;font style=&quot;font-size: 20px;&quot;&gt;1&lt;/font&gt;" style="text;html=1;align=center;verticalAlign=middle;resizable=0;points=[];autosize=1;strokeColor=none;fillColor=none;" parent="1" vertex="1">
          <mxGeometry x="810.5" y="75.5" width="30" height="40" as="geometry" />
        </mxCell>
        <mxCell id="v8aYDQcuzWpAuii8lj9a-40" value="&lt;font style=&quot;font-size: 20px;&quot;&gt;*&lt;/font&gt;" style="text;html=1;align=center;verticalAlign=middle;resizable=0;points=[];autosize=1;strokeColor=none;fillColor=none;" parent="1" vertex="1">
          <mxGeometry x="745.5" y="-54.5" width="30" height="40" as="geometry" />
        </mxCell>
        <mxCell id="v8aYDQcuzWpAuii8lj9a-41" value="&lt;font style=&quot;font-size: 20px;&quot;&gt;1:N&lt;/font&gt;" style="text;html=1;align=center;verticalAlign=middle;resizable=0;points=[];autosize=1;strokeColor=none;fillColor=none;" parent="1" vertex="1">
          <mxGeometry x="665" y="20.5" width="50" height="40" as="geometry" />
        </mxCell>
        <mxCell id="v8aYDQcuzWpAuii8lj9a-42" value="&lt;font style=&quot;font-size: 20px;&quot;&gt;*&lt;/font&gt;" style="text;html=1;align=center;verticalAlign=middle;resizable=0;points=[];autosize=1;strokeColor=none;fillColor=none;" parent="1" vertex="1">
          <mxGeometry x="920.5" y="75.5" width="30" height="40" as="geometry" />
        </mxCell>
        <mxCell id="v8aYDQcuzWpAuii8lj9a-43" value="&lt;font style=&quot;font-size: 20px;&quot;&gt;1&lt;/font&gt;" style="text;html=1;align=center;verticalAlign=middle;resizable=0;points=[];autosize=1;strokeColor=none;fillColor=none;" parent="1" vertex="1">
          <mxGeometry x="990" y="-54.5" width="30" height="40" as="geometry" />
        </mxCell>
        <mxCell id="v8aYDQcuzWpAuii8lj9a-44" value="&lt;font style=&quot;font-size: 20px;&quot;&gt;1:N&lt;/font&gt;" style="text;html=1;align=center;verticalAlign=middle;resizable=0;points=[];autosize=1;strokeColor=none;fillColor=none;" parent="1" vertex="1">
          <mxGeometry x="1040.5" y="15.5" width="50" height="40" as="geometry" />
        </mxCell>
        <mxCell id="sT4HITuChMw9f5yusegR-1" value="SUBTOTAL" style="ellipse;whiteSpace=wrap;html=1;fillColor=#e1d5e7;strokeColor=#9673a6;" parent="1" vertex="1">
          <mxGeometry x="1053.18" y="450" width="90" height="40" as="geometry" />
        </mxCell>
        <mxCell id="sT4HITuChMw9f5yusegR-2" value="QUANTITY" style="ellipse;whiteSpace=wrap;html=1;fillColor=#e1d5e7;strokeColor=#9673a6;" parent="1" vertex="1">
          <mxGeometry x="1073.18" y="494" width="90" height="40" as="geometry" />
        </mxCell>
        <mxCell id="sT4HITuChMw9f5yusegR-4" value="" style="endArrow=none;html=1;rounded=0;entryX=0.5;entryY=0;entryDx=0;entryDy=0;exitX=0;exitY=0.5;exitDx=0;exitDy=0;" parent="1" source="sT4HITuChMw9f5yusegR-1" target="I1S-UfA_8mbZQqfXlzqB-56" edge="1">
          <mxGeometry width="50" height="50" relative="1" as="geometry">
            <mxPoint x="1013.18" y="440" as="sourcePoint" />
            <mxPoint x="893.18" y="540" as="targetPoint" />
          </mxGeometry>
        </mxCell>
        <mxCell id="sT4HITuChMw9f5yusegR-5" value="" style="endArrow=none;html=1;rounded=0;entryX=0.5;entryY=0;entryDx=0;entryDy=0;exitX=0;exitY=0.5;exitDx=0;exitDy=0;" parent="1" source="sT4HITuChMw9f5yusegR-2" target="I1S-UfA_8mbZQqfXlzqB-56" edge="1">
          <mxGeometry width="50" height="50" relative="1" as="geometry">
            <mxPoint x="1063.18" y="480" as="sourcePoint" />
            <mxPoint x="893.18" y="540" as="targetPoint" />
          </mxGeometry>
        </mxCell>
        <mxCell id="sT4HITuChMw9f5yusegR-6" value="PHONE_NUMBER" style="ellipse;whiteSpace=wrap;html=1;fillColor=#e1d5e7;strokeColor=#9673a6;" parent="1" vertex="1">
          <mxGeometry x="29" y="179.5" width="90" height="40" as="geometry" />
        </mxCell>
        <mxCell id="sT4HITuChMw9f5yusegR-7" value="" style="endArrow=none;html=1;rounded=0;exitX=1;exitY=0.5;exitDx=0;exitDy=0;entryX=0;entryY=0.5;entryDx=0;entryDy=0;" parent="1" source="sT4HITuChMw9f5yusegR-6" target="RILJoQEWwzmWJmmzdWhP-11" edge="1">
          <mxGeometry width="50" height="50" relative="1" as="geometry">
            <mxPoint x="129" y="280" as="sourcePoint" />
            <mxPoint x="241" y="390" as="targetPoint" />
          </mxGeometry>
        </mxCell>
        <mxCell id="sT4HITuChMw9f5yusegR-14" style="edgeStyle=orthogonalEdgeStyle;rounded=0;orthogonalLoop=1;jettySize=auto;html=1;exitX=1;exitY=0.5;exitDx=0;exitDy=0;entryX=0;entryY=0.5;entryDx=0;entryDy=0;startArrow=classic;startFill=1;" parent="1" source="sT4HITuChMw9f5yusegR-8" target="sT4HITuChMw9f5yusegR-13" edge="1">
          <mxGeometry relative="1" as="geometry" />
        </mxCell>
        <mxCell id="sT4HITuChMw9f5yusegR-8" value="SE COMPONE DE" style="rhombus;whiteSpace=wrap;html=1;fillColor=#fff2cc;strokeColor=#d6b656;" parent="1" vertex="1">
          <mxGeometry x="1190.5" y="-139.5" width="140" height="50" as="geometry" />
        </mxCell>
        <mxCell id="sT4HITuChMw9f5yusegR-16" style="edgeStyle=orthogonalEdgeStyle;rounded=0;orthogonalLoop=1;jettySize=auto;html=1;exitX=1;exitY=0.5;exitDx=0;exitDy=0;entryX=0;entryY=0.5;entryDx=0;entryDy=0;startArrow=classic;startFill=1;" parent="1" source="sT4HITuChMw9f5yusegR-10" target="sT4HITuChMw9f5yusegR-15" edge="1">
          <mxGeometry relative="1" as="geometry" />
        </mxCell>
        <mxCell id="sT4HITuChMw9f5yusegR-10" value="SE COMPONE DE" style="rhombus;whiteSpace=wrap;html=1;fillColor=#fff2cc;strokeColor=#d6b656;" parent="1" vertex="1">
          <mxGeometry x="1190.5" y="-209.5" width="140" height="50" as="geometry" />
        </mxCell>
        <mxCell id="sT4HITuChMw9f5yusegR-13" value="LIBRO_AUTOR" style="rounded=0;whiteSpace=wrap;html=1;fillColor=#dae8fc;strokeColor=#6c8ebf;" parent="1" vertex="1">
          <mxGeometry x="1420.5" y="-134.5" width="140" height="40" as="geometry" />
        </mxCell>
        <mxCell id="sT4HITuChMw9f5yusegR-15" value="LIBRO_GENERO" style="rounded=0;whiteSpace=wrap;html=1;fillColor=#dae8fc;strokeColor=#6c8ebf;" parent="1" vertex="1">
          <mxGeometry x="1420.5" y="-204.5" width="140" height="40" as="geometry" />
        </mxCell>
        <mxCell id="sT4HITuChMw9f5yusegR-22" style="edgeStyle=orthogonalEdgeStyle;rounded=0;orthogonalLoop=1;jettySize=auto;html=1;exitX=1;exitY=0.5;exitDx=0;exitDy=0;entryX=0;entryY=0.5;entryDx=0;entryDy=0;startArrow=classic;startFill=1;" parent="1" source="sT4HITuChMw9f5yusegR-17" target="sT4HITuChMw9f5yusegR-21" edge="1">
          <mxGeometry relative="1" as="geometry" />
        </mxCell>
        <mxCell id="sT4HITuChMw9f5yusegR-17" value="SE COMPONE DE" style="rhombus;whiteSpace=wrap;html=1;fillColor=#fff2cc;strokeColor=#d6b656;" parent="1" vertex="1">
          <mxGeometry x="1190.5" y="-69.5" width="140" height="50" as="geometry" />
        </mxCell>
        <mxCell id="sT4HITuChMw9f5yusegR-21" value="LIBRO_EDITORIAL" style="rounded=0;whiteSpace=wrap;html=1;fillColor=#dae8fc;strokeColor=#6c8ebf;" parent="1" vertex="1">
          <mxGeometry x="1420.5" y="-64.5" width="140" height="40" as="geometry" />
        </mxCell>
        <mxCell id="sT4HITuChMw9f5yusegR-23" value="ID_GENRE" style="ellipse;whiteSpace=wrap;html=1;fillColor=#e1d5e7;strokeColor=#9673a6;" parent="1" vertex="1">
          <mxGeometry x="1610.5" y="-254.5" width="90" height="40" as="geometry" />
        </mxCell>
        <mxCell id="sT4HITuChMw9f5yusegR-24" value="GENRE" style="ellipse;whiteSpace=wrap;html=1;fillColor=#e1d5e7;strokeColor=#9673a6;" parent="1" vertex="1">
          <mxGeometry x="1235.5" y="-384.5" width="90" height="40" as="geometry" />
        </mxCell>
        <mxCell id="sT4HITuChMw9f5yusegR-25" value="AUTHOR" style="ellipse;whiteSpace=wrap;html=1;fillColor=#e1d5e7;strokeColor=#9673a6;" parent="1" vertex="1">
          <mxGeometry x="1275.5" y="-341.5" width="90" height="40" as="geometry" />
        </mxCell>
        <mxCell id="sT4HITuChMw9f5yusegR-26" value="PUBLISHER" style="ellipse;whiteSpace=wrap;html=1;fillColor=#e1d5e7;strokeColor=#9673a6;" parent="1" vertex="1">
          <mxGeometry x="1300.5" y="-294.5" width="90" height="40" as="geometry" />
        </mxCell>
        <mxCell id="sT4HITuChMw9f5yusegR-29" value="" style="endArrow=none;html=1;rounded=0;entryX=0;entryY=0.5;entryDx=0;entryDy=0;exitX=0.5;exitY=0;exitDx=0;exitDy=0;" parent="1" source="v8aYDQcuzWpAuii8lj9a-13" target="sT4HITuChMw9f5yusegR-26" edge="1">
          <mxGeometry width="50" height="50" relative="1" as="geometry">
            <mxPoint x="980.5" y="-124.5" as="sourcePoint" />
            <mxPoint x="1285.5" y="-311.5" as="targetPoint" />
          </mxGeometry>
        </mxCell>
        <mxCell id="sT4HITuChMw9f5yusegR-30" value="GENRE" style="ellipse;whiteSpace=wrap;html=1;fillColor=#e1d5e7;strokeColor=#9673a6;" parent="1" vertex="1">
          <mxGeometry x="1610.5" y="-209.5" width="90" height="40" as="geometry" />
        </mxCell>
        <mxCell id="sT4HITuChMw9f5yusegR-31" value="ID_AUTHOR" style="ellipse;whiteSpace=wrap;html=1;fillColor=#e1d5e7;strokeColor=#9673a6;" parent="1" vertex="1">
          <mxGeometry x="1610.5" y="-154.5" width="90" height="40" as="geometry" />
        </mxCell>
        <mxCell id="sT4HITuChMw9f5yusegR-32" value="AUTHOR" style="ellipse;whiteSpace=wrap;html=1;fillColor=#e1d5e7;strokeColor=#9673a6;" parent="1" vertex="1">
          <mxGeometry x="1610.5" y="-109.5" width="90" height="40" as="geometry" />
        </mxCell>
        <mxCell id="sT4HITuChMw9f5yusegR-33" value="ID_PUBLISHER" style="ellipse;whiteSpace=wrap;html=1;fillColor=#e1d5e7;strokeColor=#9673a6;" parent="1" vertex="1">
          <mxGeometry x="1610.5" y="-54.5" width="90" height="40" as="geometry" />
        </mxCell>
        <mxCell id="sT4HITuChMw9f5yusegR-34" value="PUBLISHER" style="ellipse;whiteSpace=wrap;html=1;fillColor=#e1d5e7;strokeColor=#9673a6;" parent="1" vertex="1">
          <mxGeometry x="1610.5" y="-8.5" width="90" height="40" as="geometry" />
        </mxCell>
        <mxCell id="sT4HITuChMw9f5yusegR-35" value="" style="endArrow=none;html=1;rounded=0;entryX=0;entryY=0.5;entryDx=0;entryDy=0;exitX=1;exitY=0.5;exitDx=0;exitDy=0;" parent="1" source="sT4HITuChMw9f5yusegR-15" target="sT4HITuChMw9f5yusegR-23" edge="1">
          <mxGeometry width="50" height="50" relative="1" as="geometry">
            <mxPoint x="980.5" y="-124.5" as="sourcePoint" />
            <mxPoint x="1310.5" y="-264.5" as="targetPoint" />
          </mxGeometry>
        </mxCell>
        <mxCell id="sT4HITuChMw9f5yusegR-36" value="" style="endArrow=none;html=1;rounded=0;entryX=0;entryY=0.5;entryDx=0;entryDy=0;exitX=1;exitY=0.5;exitDx=0;exitDy=0;" parent="1" source="sT4HITuChMw9f5yusegR-15" target="sT4HITuChMw9f5yusegR-30" edge="1">
          <mxGeometry width="50" height="50" relative="1" as="geometry">
            <mxPoint x="1570.5" y="-174.5" as="sourcePoint" />
            <mxPoint x="1620.5" y="-224.5" as="targetPoint" />
          </mxGeometry>
        </mxCell>
        <mxCell id="sT4HITuChMw9f5yusegR-37" value="" style="endArrow=none;html=1;rounded=0;entryX=0;entryY=0.5;entryDx=0;entryDy=0;exitX=1;exitY=0.5;exitDx=0;exitDy=0;" parent="1" source="sT4HITuChMw9f5yusegR-13" target="sT4HITuChMw9f5yusegR-31" edge="1">
          <mxGeometry width="50" height="50" relative="1" as="geometry">
            <mxPoint x="1570.5" y="-174.5" as="sourcePoint" />
            <mxPoint x="1620.5" y="-179.5" as="targetPoint" />
          </mxGeometry>
        </mxCell>
        <mxCell id="sT4HITuChMw9f5yusegR-38" value="" style="endArrow=none;html=1;rounded=0;entryX=0;entryY=0.5;entryDx=0;entryDy=0;exitX=1;exitY=0.5;exitDx=0;exitDy=0;" parent="1" source="sT4HITuChMw9f5yusegR-13" target="sT4HITuChMw9f5yusegR-32" edge="1">
          <mxGeometry width="50" height="50" relative="1" as="geometry">
            <mxPoint x="1570.5" y="-104.5" as="sourcePoint" />
            <mxPoint x="1620.5" y="-124.5" as="targetPoint" />
          </mxGeometry>
        </mxCell>
        <mxCell id="sT4HITuChMw9f5yusegR-39" value="" style="endArrow=none;html=1;rounded=0;entryX=0;entryY=0.5;entryDx=0;entryDy=0;exitX=1;exitY=0.5;exitDx=0;exitDy=0;" parent="1" source="sT4HITuChMw9f5yusegR-21" target="sT4HITuChMw9f5yusegR-33" edge="1">
          <mxGeometry width="50" height="50" relative="1" as="geometry">
            <mxPoint x="1570.5" y="-104.5" as="sourcePoint" />
            <mxPoint x="1620.5" y="-79.5" as="targetPoint" />
          </mxGeometry>
        </mxCell>
        <mxCell id="sT4HITuChMw9f5yusegR-40" value="" style="endArrow=none;html=1;rounded=0;entryX=0;entryY=0.5;entryDx=0;entryDy=0;exitX=1;exitY=0.5;exitDx=0;exitDy=0;" parent="1" source="sT4HITuChMw9f5yusegR-21" target="sT4HITuChMw9f5yusegR-34" edge="1">
          <mxGeometry width="50" height="50" relative="1" as="geometry">
            <mxPoint x="1570.5" y="-34.5" as="sourcePoint" />
            <mxPoint x="1620.5" y="-24.5" as="targetPoint" />
          </mxGeometry>
        </mxCell>
        <mxCell id="-r6ZoaajrkuRiwWqHP9y-1" value="&lt;font style=&quot;font-size: 20px;&quot;&gt;*&lt;/font&gt;" style="text;html=1;align=center;verticalAlign=middle;resizable=0;points=[];autosize=1;strokeColor=none;fillColor=none;" parent="1" vertex="1">
          <mxGeometry x="1115.5" y="-179.5" width="30" height="40" as="geometry" />
        </mxCell>
        <mxCell id="-r6ZoaajrkuRiwWqHP9y-2" value="&lt;font style=&quot;font-size: 20px;&quot;&gt;*&lt;/font&gt;" style="text;html=1;align=center;verticalAlign=middle;resizable=0;points=[];autosize=1;strokeColor=none;fillColor=none;" parent="1" vertex="1">
          <mxGeometry x="1370.5" y="-184.5" width="30" height="40" as="geometry" />
        </mxCell>
        <mxCell id="-r6ZoaajrkuRiwWqHP9y-3" value="&lt;font style=&quot;font-size: 20px;&quot;&gt;*&lt;/font&gt;" style="text;html=1;align=center;verticalAlign=middle;resizable=0;points=[];autosize=1;strokeColor=none;fillColor=none;" parent="1" vertex="1">
          <mxGeometry x="1115.5" y="-109.5" width="30" height="40" as="geometry" />
        </mxCell>
        <mxCell id="-r6ZoaajrkuRiwWqHP9y-4" value="&lt;font style=&quot;font-size: 20px;&quot;&gt;*&lt;/font&gt;" style="text;html=1;align=center;verticalAlign=middle;resizable=0;points=[];autosize=1;strokeColor=none;fillColor=none;" parent="1" vertex="1">
          <mxGeometry x="1115.5" y="-48.5" width="30" height="40" as="geometry" />
        </mxCell>
        <mxCell id="-r6ZoaajrkuRiwWqHP9y-5" value="&lt;font style=&quot;font-size: 20px;&quot;&gt;1&lt;/font&gt;" style="text;html=1;align=center;verticalAlign=middle;resizable=0;points=[];autosize=1;strokeColor=none;fillColor=none;" parent="1" vertex="1">
          <mxGeometry x="1370.5" y="-48.5" width="30" height="40" as="geometry" />
        </mxCell>
        <mxCell id="-r6ZoaajrkuRiwWqHP9y-6" value="&lt;font style=&quot;font-size: 20px;&quot;&gt;*&lt;/font&gt;" style="text;html=1;align=center;verticalAlign=middle;resizable=0;points=[];autosize=1;strokeColor=none;fillColor=none;" parent="1" vertex="1">
          <mxGeometry x="1370.5" y="-109.5" width="30" height="40" as="geometry" />
        </mxCell>
        <mxCell id="-r6ZoaajrkuRiwWqHP9y-7" value="&lt;font style=&quot;font-size: 20px;&quot;&gt;N:M&lt;/font&gt;" style="text;html=1;align=center;verticalAlign=middle;resizable=0;points=[];autosize=1;strokeColor=none;fillColor=none;" parent="1" vertex="1">
          <mxGeometry x="1290.5" y="-234.5" width="60" height="40" as="geometry" />
        </mxCell>
        <mxCell id="-r6ZoaajrkuRiwWqHP9y-8" value="&lt;font style=&quot;font-size: 20px;&quot;&gt;N:M&lt;/font&gt;" style="text;html=1;align=center;verticalAlign=middle;resizable=0;points=[];autosize=1;strokeColor=none;fillColor=none;" parent="1" vertex="1">
          <mxGeometry x="1290.5" y="-164.5" width="60" height="40" as="geometry" />
        </mxCell>
        <mxCell id="-r6ZoaajrkuRiwWqHP9y-9" value="&lt;font style=&quot;font-size: 20px;&quot;&gt;1:N&lt;/font&gt;" style="text;html=1;align=center;verticalAlign=middle;resizable=0;points=[];autosize=1;strokeColor=none;fillColor=none;" parent="1" vertex="1">
          <mxGeometry x="1295.5" y="-94.5" width="50" height="40" as="geometry" />
        </mxCell>
        <mxCell id="z2t-uiW_qvNyzI8gylco-1" value="IMG" style="ellipse;whiteSpace=wrap;html=1;fillColor=#e1d5e7;strokeColor=#9673a6;" parent="1" vertex="1">
          <mxGeometry x="1073.1799999999998" y="240" width="90" height="40" as="geometry" />
        </mxCell>
        <mxCell id="z2t-uiW_qvNyzI8gylco-2" value="" style="endArrow=none;html=1;rounded=0;entryX=0;entryY=0.5;entryDx=0;entryDy=0;exitX=0.5;exitY=1;exitDx=0;exitDy=0;" parent="1" source="I1S-UfA_8mbZQqfXlzqB-15" target="z2t-uiW_qvNyzI8gylco-1" edge="1">
          <mxGeometry width="50" height="50" relative="1" as="geometry">
            <mxPoint x="990" y="230" as="sourcePoint" />
            <mxPoint x="1071" y="306" as="targetPoint" />
          </mxGeometry>
        </mxCell>
        <mxCell id="z2t-uiW_qvNyzI8gylco-7" style="edgeStyle=orthogonalEdgeStyle;rounded=0;orthogonalLoop=1;jettySize=auto;html=1;exitX=0.5;exitY=1;exitDx=0;exitDy=0;entryX=0.5;entryY=0;entryDx=0;entryDy=0;startArrow=classic;startFill=1;" parent="1" source="z2t-uiW_qvNyzI8gylco-4" target="z2t-uiW_qvNyzI8gylco-5" edge="1">
          <mxGeometry relative="1" as="geometry" />
        </mxCell>
        <mxCell id="z2t-uiW_qvNyzI8gylco-4" value="SE COMPONE DE" style="rhombus;whiteSpace=wrap;html=1;fillColor=#fff2cc;strokeColor=#d6b656;" parent="1" vertex="1">
          <mxGeometry x="913.1800000000001" y="620" width="140" height="50" as="geometry" />
        </mxCell>
        <mxCell id="z2t-uiW_qvNyzI8gylco-5" value="COMPRA_METODO" style="rounded=0;whiteSpace=wrap;html=1;fillColor=#dae8fc;strokeColor=#6c8ebf;" parent="1" vertex="1">
          <mxGeometry x="1090.5" y="710" width="140" height="40" as="geometry" />
        </mxCell>
        <mxCell id="z2t-uiW_qvNyzI8gylco-9" value="ID_PAYMENT_METHOD&amp;nbsp;" style="ellipse;whiteSpace=wrap;html=1;fillColor=#e1d5e7;strokeColor=#9673a6;" parent="1" vertex="1">
          <mxGeometry x="1053.18" y="810" width="90" height="40" as="geometry" />
        </mxCell>
        <mxCell id="z2t-uiW_qvNyzI8gylco-10" value="PAYMENT_METHOD" style="ellipse;whiteSpace=wrap;html=1;fillColor=#e1d5e7;strokeColor=#9673a6;" parent="1" vertex="1">
          <mxGeometry x="1190.5" y="810" width="90" height="40" as="geometry" />
        </mxCell>
        <mxCell id="z2t-uiW_qvNyzI8gylco-11" value="" style="endArrow=none;html=1;rounded=0;exitX=0.5;exitY=0;exitDx=0;exitDy=0;entryX=0.5;entryY=1;entryDx=0;entryDy=0;" parent="1" source="z2t-uiW_qvNyzI8gylco-9" target="z2t-uiW_qvNyzI8gylco-5" edge="1">
          <mxGeometry width="50" height="50" relative="1" as="geometry">
            <mxPoint x="1347.5" y="826" as="sourcePoint" />
            <mxPoint x="1195.5" y="780" as="targetPoint" />
          </mxGeometry>
        </mxCell>
        <mxCell id="z2t-uiW_qvNyzI8gylco-12" value="" style="endArrow=none;html=1;rounded=0;exitX=0.5;exitY=0;exitDx=0;exitDy=0;entryX=0.5;entryY=1;entryDx=0;entryDy=0;" parent="1" source="z2t-uiW_qvNyzI8gylco-10" target="z2t-uiW_qvNyzI8gylco-5" edge="1">
          <mxGeometry width="50" height="50" relative="1" as="geometry">
            <mxPoint x="1108" y="820" as="sourcePoint" />
            <mxPoint x="1171" y="760" as="targetPoint" />
          </mxGeometry>
        </mxCell>
        <mxCell id="z2t-uiW_qvNyzI8gylco-13" value="&lt;font style=&quot;font-size: 20px;&quot;&gt;*&lt;/font&gt;" style="text;html=1;align=center;verticalAlign=middle;resizable=0;points=[];autosize=1;strokeColor=none;fillColor=none;" parent="1" vertex="1">
          <mxGeometry x="990" y="570" width="30" height="40" as="geometry" />
        </mxCell>
        <mxCell id="z2t-uiW_qvNyzI8gylco-14" value="&lt;font style=&quot;font-size: 20px;&quot;&gt;1&lt;/font&gt;" style="text;html=1;align=center;verticalAlign=middle;resizable=0;points=[];autosize=1;strokeColor=none;fillColor=none;" parent="1" vertex="1">
          <mxGeometry x="1023.1800000000001" y="690" width="30" height="40" as="geometry" />
        </mxCell>
        <mxCell id="z2t-uiW_qvNyzI8gylco-15" value="&lt;font style=&quot;font-size: 20px;&quot;&gt;1:N&lt;/font&gt;" style="text;html=1;align=center;verticalAlign=middle;resizable=0;points=[];autosize=1;strokeColor=none;fillColor=none;" parent="1" vertex="1">
          <mxGeometry x="1060" y="630" width="50" height="40" as="geometry" />
        </mxCell>
      </root>
    </mxGraphModel>
  </diagram>
</mxfile>
